PathFileType	4	(X/Y/Z)	C:/Users/opensim2020/Desktop/walking_exp_matlab/subject01_walking16_run.trc																																																																																																																																																																																											
DataRate	CameraRate	NumFrames	NumMarkers	Units	OrigDataRate	OrigDataStartFrame	OrigNumFrames																																																																																																																																																																																							
100	100	4	63	mm	100	403	89																																																																																																																																																																																							
Frame#	Time	LKNE			RELB			LTHI			RUPA			LTIB			RFRM			LTOE			LSHO			RWRA			RSHO			RWRB			STRN			RFIN			RBHD			CLAV			LHEE			LFHD			RASI			RFHD			LBHD			C7			LWRB			LWRA			LFRM			RTHI			RKNE			LELB			LFIN			LUPA			RTIB			RANK			RTOE			RHEE			T10			RBAK			LASI			LPSI			RPSI			LANK			*39			*40			*41			*42			*43			*44			*45			*46			*47			*48			*49			*50			*51			*52			*53			*54			*55			*56			*57			*58			*59			*60			*61			*62		
		X1	Y1	Z1	X2	Y2	Z2	X3	Y3	Z3	X4	Y4	Z4	X5	Y5	Z5	X6	Y6	Z6	X7	Y7	Z7	X8	Y8	Z8	X9	Y9	Z9	X10	Y10	Z10	X11	Y11	Z11	X12	Y12	Z12	X13	Y13	Z13	X14	Y14	Z14	X15	Y15	Z15	X16	Y16	Z16	X17	Y17	Z17	X18	Y18	Z18	X19	Y19	Z19	X20	Y20	Z20	X21	Y21	Z21	X22	Y22	Z22	X23	Y23	Z23	X24	Y24	Z24	X25	Y25	Z25	X26	Y26	Z26	X27	Y27	Z27	X28	Y28	Z28	X29	Y29	Z29	X30	Y30	Z30	X31	Y31	Z31	X32	Y32	Z32	X33	Y33	Z33	X34	Y34	Z34	X35	Y35	Z35	X36	Y36	Z36	X37	Y37	Z37	X38	Y38	Z38	X39	Y39	Z39	X40	Y40	Z40	X41	Y41	Z41	X42	Y42	Z42	X43	Y43	Z43	X44	Y44	Z44	X45	Y45	Z45	X46	Y46	Z46	X47	Y47	Z47	X48	Y48	Z48	X49	Y49	Z49	X50	Y50	Z50	X51	Y51	Z51	X52	Y52	Z52	X53	Y53	Z53	X54	Y54	Z54	X55	Y55	Z55	X56	Y56	Z56	X57	Y57	Z57	X58	Y58	Z58	X59	Y59	Z59	X60	Y60	Z60	X61	Y61	Z61	X62	Y62	Z62	X63	Y63	Z63
																																																																																																																																																																																														
56	0.55	695.15179	411.41479	-603.24579	508.11829	1142.02673	-161.8138	725.35553	540.65363	-617.1582	579.60315	1240.83362	-200.9343	518.94995	394.27893	-604.80713	548.86414	1020.09637	-134.2459	260.10422	219.67479	-549.0296	807.86926	1345.81787	-590.89325	657.4552	932.83624	-160.5959	740.65698	1343.51147	-290.57343	616.02942	913.41327	-126.21932	862.73175	1156.13391	-424.72531	687.29419	866.30457	-118.45111	716.04681	1574.35437	-372.75256	827.70984	1313.47131	-424.13071	284.06131	407.35501	-500.78958	804.39343	1618.41516	-510.54065	766.74109	889.30371	-360.94031	823.69769	1635.30774	-399.62781	697.64197	1559.2002	-490.52042	685.66919	1384.56201	-456.70074	940.8407	1003.95813	-562.57123	924.14612	1056.31458	-538.8902	862.04913	1017.25592	-656.16998	848.23645	586.25885	-299.99902	933.48047	450.72101	-329.44171	771.15692	1040.4187	-738.38831	992.20874	1034.61926	-503.99432	780.53888	1189.15662	-705.87073	886.79266	281.51065	-323.99969	855.49054	75.05008	-374.67929	996.24573	40.58333	-399.573	799.95758	45.44456	-418.26007	620.4303	1109.06348	-469.71854	605.61853	1207.82117	-396.77545	775.33875	892.45056	-562.96265	597.36865	917.51599	-520.43433	595.13513	906.26514	-371.30505	305.3642	369.14444	-555.26312	1973.04517	1023.89825	-3101.94019	2012.55481	1022.02618	-3140.66895	NaN	NaN	NaN	NaN	NaN	NaN	NaN	NaN	NaN	NaN	NaN	NaN	NaN	NaN	NaN	NaN	NaN	NaN	NaN	NaN	NaN	NaN	NaN	NaN	807.41302	1667.57971	-424.22403	NaN	NaN	NaN	NaN	NaN	NaN	NaN	NaN	NaN	NaN	NaN	NaN	NaN	NaN	NaN	NaN	NaN	NaN	NaN	NaN	NaN	NaN	NaN	NaN	NaN	NaN	NaN	NaN	NaN	NaN	NaN	NaN	NaN	NaN	NaN	NaN	NaN	NaN	NaN
57	0.56	769.03198	407.53949	-607.76007	566.1189	1121.6322	-158.39905	788.00641	536.45062	-621.02649	632.91138	1223.45142	-195.94208	595.71613	389.96161	-609.87	613.32532	1001.02228	-137.48865	340.29459	217.60765	-553.25317	850.47382	1343.57983	-593.45245	725.72443	921.18799	-169.99965	790.03967	1337.58459	-288.31467	685.68927	898.29193	-134.94945	910.6156	1152.30823	-428.79822	758.4657	855.21478	-131.14174	762.60278	1570.73596	-370.55365	876.28284	1308.84949	-425.98657	360.12494	405.7673	-504.08054	848.93701	1616.93616	-509.47452	810.85895	885.89795	-361.20377	869.15454	1633.8103	-398.2496	743.26569	1555.42432	-488.28366	730.53229	1379.74841	-453.86844	971.75671	976.61713	-579.51367	961.14856	1028.23083	-551.32257	890.84631	1004.49292	-668.73364	885.97443	583.83478	-300.58685	970.91632	447.3284	-333.33557	797.90259	1040.95313	-743.81683	1028.62305	997.63159	-521.68359	814.12512	1188.57214	-708.30731	913.53925	280.35806	-326.92831	860.67444	81.83966	-376.32217	997.14386	40.45866	-400.05136	800.74158	49.27738	-420.65378	666.57739	1101.56482	-467.50372	653.07642	1199.47925	-391.78021	821.59094	888.6344	-562.05811	640.85095	908.38287	-522.14001	636.84399	898.08826	-370.85638	382.8046	367.27441	-558.48645	1973.11963	1023.56384	-3101.97168	2012.53906	1022.13385	-3140.65796	NaN	NaN	NaN	NaN	NaN	NaN	NaN	NaN	NaN	NaN	NaN	NaN	NaN	NaN	NaN	NaN	NaN	NaN	NaN	NaN	NaN	NaN	NaN	NaN	852.19073	1663.91125	-422.72626	NaN	NaN	NaN	NaN	NaN	NaN	NaN	NaN	NaN	NaN	NaN	NaN	NaN	NaN	NaN	NaN	NaN	NaN	NaN	NaN	NaN	NaN	NaN	NaN	NaN	NaN	NaN	NaN	NaN	NaN	NaN	NaN	NaN	NaN	NaN	NaN	NaN	NaN	NaN
58	0.57	845.99628	405.98325	-610.52368	625.79736	1100.57983	-155.42805	853.37201	535.21289	-624.14038	688.4657	1205.67407	-190.41893	674.55005	384.90143	-614.42889	680.20844	982.13477	-142.00893	425.992	210.73715	-557.10809	893.4118	1341.98279	-596.59528	795.00909	911.44287	-181.36513	839.2049	1332.79285	-286.82004	757.53113	884.41364	-145.66798	957.93292	1150.55103	-432.15857	831.69086	847.21167	-145.79665	809.28406	1568.44629	-368.75214	923.36346	1307.04089	-428.1481	436.53766	400.13202	-508.65341	893.54462	1616.80225	-507.90155	855.27179	885.16205	-360.72266	914.59875	1633.68799	-397.12579	789.14313	1553.1908	-486.38464	776.79358	1378.41858	-451.53036	999.46869	950.44757	-598.61987	995.6767	1000.59137	-566.41107	917.51276	992.30066	-681.70392	923.01581	581.92499	-300.99213	1005.77496	444.23535	-337.05267	824.15088	1042.66846	-748.1673	1061.46875	960.5238	-544.13995	848.17749	1189.58386	-709.88788	938.86212	279.21768	-329.70853	863.04272	84.98952	-377.29498	996.74384	40.34463	-400.37311	801.20691	53.78374	-421.66635	712.48987	1096.46777	-465.7803	700.62866	1193.67371	-388.69876	866.13544	884.82056	-561.50745	682.77612	897.92389	-525.37097	677.58905	891.89288	-375.41928	462.35425	361.49243	-562.21625	1973.18762	1023.46136	-3101.92188	2012.52832	1022.18719	-3140.76709	NaN	NaN	NaN	NaN	NaN	NaN	NaN	NaN	NaN	NaN	NaN	NaN	NaN	NaN	NaN	NaN	NaN	NaN	NaN	NaN	NaN	NaN	NaN	NaN	895.66876	1662.13599	-421.13101	NaN	NaN	NaN	NaN	NaN	NaN	NaN	NaN	NaN	NaN	NaN	NaN	NaN	NaN	NaN	NaN	NaN	NaN	NaN	NaN	NaN	NaN	NaN	NaN	NaN	NaN	NaN	NaN	NaN	NaN	NaN	NaN	NaN	NaN	NaN	NaN	NaN	NaN	NaN
59	0.58	925.57245	409.47983	-612.53876	688.70087	1081.10852	-153.67862	921.52423	542.09186	-627.73987	747.57056	1192.06543	-186.02856	755.21643	380.67966	-618.06146	750.27808	965.15613	-148.37477	516.36694	200.17938	-561.0451	936.98279	1340.92822	-598.93085	865.90576	905.02808	-194.38019	888.35461	1329.42773	-286.04181	832.0658	873.76843	-158.02853	1004.43854	1149.90637	-434.89496	907.0918	842.7995	-163.17673	856.02045	1567.39819	-367.45663	970.10474	1306.88843	-429.79715	513.71509	390.13696	-513.29352	938.68378	1617.26086	-506.67068	900.23016	887.02338	-358.07748	960.61566	1633.82263	-395.89395	835.09979	1552.66321	-484.85706	825.59912	1380.69336	-449.53363	1023.47437	927.23389	-619.47723	1027.04773	974.98926	-583.47516	941.74963	982.33051	-694.08942	959.01563	579.36786	-300.90973	1036.96167	438.79868	-339.33289	850.54828	1045.8335	-752.00745	1090.44434	926.44232	-571.12769	882.96106	1191.85864	-710.84943	955.90253	276.30307	-329.81042	863.72333	86.63563	-377.53705	996.1308	40.17365	-400.42081	801.1225	57.42333	-422.4118	757.8092	1099.85352	-464.44934	746.55823	1193.8136	-387.01959	909.95996	881.03833	-561.05286	725.2157	888.56512	-529.86633	718.26678	893.25446	-382.99286	543.4884	352.21747	-565.84222	1973.09692	1023.70087	-3101.88354	2012.53137	1022.19312	-3140.71777	NaN	NaN	NaN	NaN	NaN	NaN	NaN	NaN	NaN	NaN	NaN	NaN	NaN	NaN	NaN	NaN	NaN	NaN	NaN	NaN	NaN	NaN	NaN	NaN	938.9942	1661.58191	-419.3783	NaN	NaN	NaN	NaN	NaN	NaN	NaN	NaN	NaN	NaN	NaN	NaN	NaN	NaN	NaN	NaN	NaN	NaN	NaN	NaN	NaN	NaN	NaN	NaN	NaN	NaN	NaN	NaN	NaN	NaN	NaN	NaN	NaN	NaN	NaN	NaN	NaN	NaN	NaN
